<svg xmlns="http://www.w3.org/2000/svg" version="1.1" xmlns:xlink="http://www.w3.org/1999/xlink" xmlns:svgjs="http://svgjs.dev/svgjs" viewBox="0 0 1920 1080"><rect width="1920" height="1080" fill="#000000"></rect><g transform="matrix(7.04171909509728e-17,1.15,-1.15,7.04171909509728e-17,1526.1422958374023,-500.9136402130125)"><path d="M0,-1080C0.5559790605657232,-953.8691296423665,21.500926208708222,-539.0059791566919,3.335874363394339,-323.21477785419864C-14.829177481919544,-107.42357655170548,-102.24217409504804,11.021879399446732,-108.9903110718833,214.74720781495904C-115.73844804871855,418.47253623047135,-74.10735703057352,687.5269340891425,-37.15294749761722,899.1371926388751C-0.19853796466092177,1110.7474511886078,106.54398820958494,1274.2649578865007,112.73614612585448,1484.4087591133548C118.92830404212401,1694.5525603402089,18.78935768764241,2047.4014598522258,0,2160L 1920 2160 L 1920 -1080 Z" fill="url(&quot;#SvgjsLinearGradient1010&quot;)"></path><path d="M960,-1080C971.6341158995,-976.8703743138683,1040.5593431994246,-623.0949920828291,1029.804695397,-461.22224588321C1019.0500475945754,-299.3494996835909,927.1360032026994,-258.11617153003925,895.4721131854526,-108.76352280228542C863.8082231682058,40.58912592546841,820.841672768721,236.97047466563944,839.8213552935192,434.893646483313C858.8010378183175,632.8168183009865,1004.2829794196368,897.1686382784583,1009.3502083342419,1078.7755081037558C1014.4174372488469,1260.3823779290533,878.4497635035232,1344.3307834523907,870.2247287811496,1524.534865435098C861.999694058776,1704.7389474178053,945.0374547968582,2054.089144239183,960,2160L 1920 2160 L 1920 -1080 Z" fill="url(&quot;#SvgjsLinearGradient1011&quot;)"></path></g><defs><linearGradient x1="0.1" y1="0" x2="0" y2="1" id="SvgjsLinearGradient1010"><stop stop-color="#000000" offset="0"></stop><stop stop-color="#000000" offset="0"></stop></linearGradient><linearGradient x1="0.1" y1="0" x2="0" y2="1" id="SvgjsLinearGradient1011"><stop stop-color="#808080" offset="0"></stop><stop stop-color="#808080" offset="0.5"></stop></linearGradient></defs></svg>